<svg width="184" height="60" viewBox="0 0 184 60" fill="none" xmlns="http://www.w3.org/2000/svg">
<path fill-rule="evenodd" clip-rule="evenodd" d="M36.1344 51.7688C36.0488 50.8112 35.9632 49.8528 35.8552 48.648C29.772 48.8592 23.8216 50.8168 17.7352 50.7624C17.6776 50.2872 17.62 49.8128 17.5632 49.3392C24.8056 48.2536 32.048 47.168 39.5336 46.0464C39.5336 47.3392 39.5336 48.1688 39.5336 49.3856C43.7552 48.9576 47.7856 48.5488 51.816 48.14C51.8856 48.5896 51.9552 49.0384 52.0248 49.488C47.528 50.248 43.0312 51.0096 38.5352 51.7704C37.7344 51.7688 36.9344 51.7688 36.1344 51.7688Z" fill="white"/>
<path fill-rule="evenodd" clip-rule="evenodd" d="M40.9352 11.563C44.7664 14.839 45.008 16.935 41.6856 20.4294C39.4056 18.6254 37.1 16.8006 34.4176 14.679C35.7768 13.475 36.856 12.5198 37.9352 11.563C38.9352 11.563 39.9352 11.563 40.9352 11.563Z" fill="white"/>
<path fill-rule="evenodd" clip-rule="evenodd" d="M11.5312 48.7686C12.212 46.4278 12.892 44.087 13.7032 41.2974C15.8888 43.023 17.868 44.5854 20.6216 46.7598C17.1384 47.9894 14.3352 48.9782 11.5312 49.9686C11.5312 49.5686 11.5312 49.1678 11.5312 48.7686Z" fill="white"/>
<path fill-rule="evenodd" clip-rule="evenodd" d="M14.4304 39.5596C20.8736 31.634 27.0872 23.9892 33.4872 16.1172C35.6552 17.8228 37.5816 19.3772 39.5536 20.8732C40.8048 21.8228 41.9024 23.594 43.828 21.8236C44.0096 21.6564 44.9576 21.9108 45.0752 22.178C45.28 22.6452 45.348 23.4564 45.072 23.8084C42.488 27.1068 39.848 30.3644 37.1288 33.5532C36.8312 33.902 35.9344 33.7372 35.3152 33.8108C35.2936 33.1804 35.0112 32.374 35.2968 31.95C36.2968 30.4644 37.504 29.1204 38.6088 27.702C39.248 26.8812 39.8408 26.0236 40.4536 25.1828C40.1992 24.906 39.9432 24.6292 39.6888 24.3516C38.9208 24.9492 38.0112 25.4308 37.4064 26.1636C32.9616 31.5556 28.58 37.0004 24.1728 42.4236C23.484 43.2724 22.768 44.098 21.748 45.3092C19.3816 43.45 17.0776 41.6404 14.4304 39.5596Z" fill="white"/>
<path d="M59.3504 40.735C58.0464 38.6694 57.3952 35.9166 57.3952 32.4774C57.3952 29.7046 57.7072 27.479 58.3312 25.8006C58.9552 24.1222 59.9464 22.8878 61.3056 22.0982C62.664 21.3078 64.4672 20.9126 66.7136 20.9126C68.6824 20.9126 70.2768 21.2526 71.4976 21.9318C72.7176 22.6118 73.612 23.6158 74.1808 24.9478C74.7488 26.279 75.0336 27.971 75.0336 30.023C75.0056 30.4678 74.9776 30.9046 74.9504 31.3342C74.9224 31.7638 74.8944 32.2014 74.8672 32.6446L74.7424 33.3102H60.016C60.0712 36.1118 60.5984 38.1774 61.5968 39.5086C62.5952 40.8398 64.3144 41.5054 66.7552 41.5054C67.892 41.5054 69.2232 41.4158 70.7488 41.235C72.2736 41.0542 73.5216 40.7846 74.4928 40.423L74.5344 42.8774C73.4528 43.2662 72.232 43.5222 70.8736 43.647C69.5144 43.7718 68.0864 43.8342 66.5888 43.8342C63.0664 43.8342 60.6536 42.8014 59.3504 40.735ZM72.3712 31.1046L72.4128 30.0646C72.4128 28.123 72.1488 26.6598 71.6224 25.6758C71.0952 24.6918 70.4224 24.0534 69.6048 23.7622C68.7864 23.471 67.7808 23.3246 66.5888 23.3246C65.1464 23.3246 63.968 23.547 63.0528 23.9902C62.1376 24.435 61.4232 25.2246 60.9104 26.3622C60.3968 27.4998 60.1128 29.0798 60.0576 31.1046H72.3712Z" fill="white"/>
<path d="M79.6928 13.4238H95.2512V15.9198H82.3968V26.3198H94.7104L94.6688 28.7742H82.3968L82.4384 43.3758H79.6096L79.6928 13.4238Z" fill="white"/>
<path d="M99.0776 14.1733H102.031L102.073 18.3749H99.1192L99.0776 14.1733ZM99.3272 21.3701H101.823V43.3765H99.3272V21.3701Z" fill="white"/>
<path d="M106.606 21.3701H108.187L108.936 26.3621C110.101 24.3381 111.418 23.0069 112.888 22.3685C114.358 21.7309 115.509 21.4117 116.341 21.4117L116.382 24.2821L115.259 24.4485C113.346 24.8093 111.834 25.3221 110.725 25.9877C109.615 26.6533 109.061 27.5549 109.061 28.6917V43.3765H106.523L106.606 21.3701Z" fill="white"/>
<path d="M118.837 21.37H120.626L121.25 24.822C121.887 23.7132 122.643 22.8676 123.517 22.2844C124.39 21.702 125.229 21.3284 126.034 21.162C126.838 20.9956 127.642 20.9116 128.446 20.9116C129.916 20.9116 131.268 21.2588 132.502 21.9516C133.736 22.6452 134.589 23.6436 135.061 24.9468C135.92 23.366 136.988 22.2988 138.264 21.7436C139.539 21.1892 140.802 20.9116 142.05 20.9116C144.629 20.9116 146.507 21.6188 147.686 23.0332C148.865 24.4476 149.454 26.7212 149.454 29.8548V43.3748H146.875V29.8148C146.875 28.4284 146.771 27.2916 146.563 26.4036C146.355 25.5164 145.87 24.7812 145.107 24.1988C144.344 23.6156 143.2 23.3244 141.675 23.3244C139.318 23.3244 137.716 23.8444 136.87 24.8844C136.024 25.9244 135.602 27.5268 135.602 29.6892V43.3756H133.022V29.8148C133.022 28.4004 132.932 27.25 132.752 26.3628C132.571 25.4756 132.121 24.7468 131.4 24.1788C130.678 23.6108 129.57 23.326 128.072 23.326C125.686 23.326 123.988 23.8676 122.976 24.9484C121.963 26.0308 121.458 27.6108 121.458 29.6908V43.3772H118.878L118.837 21.37Z" fill="white"/>
<path d="M154.987 41.8168C153.878 40.472 153.323 38.8992 153.323 37.096C153.323 35.072 153.995 33.4976 155.341 32.3744C156.686 31.2512 158.87 30.6896 161.893 30.6896H167.55V29.6912C167.55 27.3352 167.065 25.684 166.094 24.7408C165.123 23.7976 163.584 23.3256 161.477 23.3256C160.422 23.3256 159.258 23.4376 157.982 23.6584C156.706 23.8808 155.542 24.1856 154.488 24.5744L154.53 22.12C155.528 21.704 156.678 21.4 157.982 21.2048C159.286 21.0112 160.478 20.9136 161.56 20.9136C163.917 20.9136 165.726 21.3576 166.989 22.2448C168.25 23.1328 169.09 24.2352 169.506 25.552C169.922 26.8696 170.13 28.4024 170.13 30.1488V43.3776H168.382L167.717 38.9264C167.023 40.5632 166.046 41.7904 164.784 42.6088C163.522 43.4264 162.184 43.836 160.77 43.836C158.024 43.8344 156.096 43.1616 154.987 41.8168ZM164.326 40.6512C165.31 40.0832 166.094 39.2784 166.677 38.2384C167.259 37.1984 167.55 36.0264 167.55 34.7224V32.9344H162.142C159.923 32.9344 158.342 33.3224 157.4 34.0992C156.457 34.876 155.986 35.8744 155.986 37.0944C155.986 38.2864 156.325 39.3192 157.005 40.1936C157.684 41.0672 159.05 41.504 161.102 41.504C162.266 41.5048 163.342 41.22 164.326 40.6512Z" fill="white"/>
</svg>
